{"asset":{"version":"2.0","generator":"Blockbench 4.11.2 glTF exporter"},"scenes":[{"nodes":[25],"name":"blockbench_export"}],"scene":0,"nodes":[{"rotation":[0,0,-0.7071067811865475,0.7071067811865476],"translation":[0.625,0,0],"name":"r","mesh":0},{"rotation":[0,0,0.7071067811865475,0.7071067811865476],"translation":[-0.625,0,0],"name":"l","mesh":1},{"translation":[0,0.5,0],"name":"Horns","children":[0,1]},{"translation":[0.3125,0,0],"name":"r","mesh":2},{"translation":[-0.3125,0,0],"name":"l","mesh":3},{"translation":[0,0.71875,0],"name":"Ears","children":[3,4]},{"translation":[0,0.125,0],"name":"Head","mesh":4},{"translation":[0,0.15625,0],"name":"MorsHead","children":[6]},{"translation":[0,-0.5625,0],"name":"body","mesh":5},{"translation":[0,0.15625,0],"name":"body","children":[8]},{"translation":[0,-0.0015624999999999112,0],"name":"upper arm","mesh":6},{"translation":[0,-0.328125,0],"name":"lower arm","mesh":7},{"rotation":[0,0,0.7071067811865475,0.7071067811865476],"translation":[0.5625,0.0015624999999999112,0],"name":"rightarm","children":[10,11]},{"translation":[0,-0.0015624999999999112,0],"name":"upper arm","mesh":8},{"translation":[0,-0.328125,0],"name":"lower arm","mesh":9},{"rotation":[0,0,-0.7071067811865475,0.7071067811865476],"translation":[-0.5625,0.0015624999999999112,0],"name":"leftarm","children":[13,14]},{"translation":[0,0.015625,0],"name":"arms","children":[12,15]},{"translation":[0,-2.220446049250313e-15,0],"name":"Pantleg","mesh":10},{"translation":[0,-0.3890625,0],"name":"lowerleg","mesh":11},{"translation":[0.3125,0,0],"name":"RightLEG2","children":[17,18]},{"translation":[0,-2.220446049250313e-15,0],"name":"Pantleg","mesh":12},{"translation":[0,-0.3890625,0],"name":"lowerleg","mesh":13},{"translation":[-0.3125,0,0],"name":"LeftLEG2","children":[20,21]},{"translation":[0,-0.78125,0],"name":"legs","children":[19,22]},{"translation":[0,1.71875,0],"name":"Mors","children":[2,5,7,9,16,23]},{"children":[24]}],"bufferViews":[{"buffer":0,"byteOffset":0,"byteLength":2592,"target":34962,"byteStride":12},{"buffer":0,"byteOffset":2592,"byteLength":2592,"target":34962,"byteStride":12},{"buffer":0,"byteOffset":5184,"byteLength":1728,"target":34962,"byteStride":8},{"buffer":0,"byteOffset":6912,"byteLength":576,"target":34963},{"buffer":0,"byteOffset":7488,"byteLength":2592,"target":34962,"byteStride":12},{"buffer":0,"byteOffset":10080,"byteLength":2592,"target":34962,"byteStride":12},{"buffer":0,"byteOffset":12672,"byteLength":1728,"target":34962,"byteStride":8},{"buffer":0,"byteOffset":14400,"byteLength":576,"target":34963},{"buffer":0,"byteOffset":14976,"byteLength":2592,"target":34962,"byteStride":12},{"buffer":0,"byteOffset":17568,"byteLength":2592,"target":34962,"byteStride":12},{"buffer":0,"byteOffset":20160,"byteLength":1728,"target":34962,"byteStride":8},{"buffer":0,"byteOffset":21888,"byteLength":576,"target":34963},{"buffer":0,"byteOffset":22464,"byteLength":2592,"target":34962,"byteStride":12},{"buffer":0,"byteOffset":25056,"byteLength":2592,"target":34962,"byteStride":12},{"buffer":0,"byteOffset":27648,"byteLength":1728,"target":34962,"byteStride":8},{"buffer":0,"byteOffset":29376,"byteLength":576,"target":34963},{"buffer":0,"byteOffset":29952,"byteLength":2016,"target":34962,"byteStride":12},{"buffer":0,"byteOffset":31968,"byteLength":2016,"target":34962,"byteStride":12},{"buffer":0,"byteOffset":33984,"byteLength":1344,"target":34962,"byteStride":8},{"buffer":0,"byteOffset":35328,"byteLength":432,"target":34963},{"buffer":0,"byteOffset":35760,"byteLength":3456,"target":34962,"byteStride":12},{"buffer":0,"byteOffset":39216,"byteLength":3456,"target":34962,"byteStride":12},{"buffer":0,"byteOffset":42672,"byteLength":2304,"target":34962,"byteStride":8},{"buffer":0,"byteOffset":44976,"byteLength":432,"target":34963},{"buffer":0,"byteOffset":45408,"byteLength":288,"target":34963},{"buffer":0,"byteOffset":45696,"byteLength":7224,"target":34962,"byteStride":12},{"buffer":0,"byteOffset":52920,"byteLength":7224,"target":34962,"byteStride":12},{"buffer":0,"byteOffset":60144,"byteLength":4816,"target":34962,"byteStride":8},{"buffer":0,"byteOffset":64960,"byteLength":1656,"target":34963},{"buffer":0,"byteOffset":66616,"byteLength":8112,"target":34962,"byteStride":12},{"buffer":0,"byteOffset":74728,"byteLength":8112,"target":34962,"byteStride":12},{"buffer":0,"byteOffset":82840,"byteLength":5408,"target":34962,"byteStride":8},{"buffer":0,"byteOffset":88248,"byteLength":1872,"target":34963},{"buffer":0,"byteOffset":90120,"byteLength":7224,"target":34962,"byteStride":12},{"buffer":0,"byteOffset":97344,"byteLength":7224,"target":34962,"byteStride":12},{"buffer":0,"byteOffset":104568,"byteLength":4816,"target":34962,"byteStride":8},{"buffer":0,"byteOffset":109384,"byteLength":1656,"target":34963},{"buffer":0,"byteOffset":111040,"byteLength":8112,"target":34962,"byteStride":12},{"buffer":0,"byteOffset":119152,"byteLength":8112,"target":34962,"byteStride":12},{"buffer":0,"byteOffset":127264,"byteLength":5408,"target":34962,"byteStride":8},{"buffer":0,"byteOffset":132672,"byteLength":1872,"target":34963},{"buffer":0,"byteOffset":134544,"byteLength":7272,"target":34962,"byteStride":12},{"buffer":0,"byteOffset":141816,"byteLength":7272,"target":34962,"byteStride":12},{"buffer":0,"byteOffset":149088,"byteLength":4848,"target":34962,"byteStride":8},{"buffer":0,"byteOffset":153936,"byteLength":1668,"target":34963},{"buffer":0,"byteOffset":155604,"byteLength":4680,"target":34962,"byteStride":12},{"buffer":0,"byteOffset":160284,"byteLength":4680,"target":34962,"byteStride":12},{"buffer":0,"byteOffset":164964,"byteLength":3120,"target":34962,"byteStride":8},{"buffer":0,"byteOffset":168084,"byteLength":1092,"target":34963},{"buffer":0,"byteOffset":169176,"byteLength":7272,"target":34962,"byteStride":12},{"buffer":0,"byteOffset":176448,"byteLength":7272,"target":34962,"byteStride":12},{"buffer":0,"byteOffset":183720,"byteLength":4848,"target":34962,"byteStride":8},{"buffer":0,"byteOffset":188568,"byteLength":1668,"target":34963},{"buffer":0,"byteOffset":190236,"byteLength":4680,"target":34962,"byteStride":12},{"buffer":0,"byteOffset":194916,"byteLength":4680,"target":34962,"byteStride":12},{"buffer":0,"byteOffset":199596,"byteLength":3120,"target":34962,"byteStride":8},{"buffer":0,"byteOffset":202716,"byteLength":1092,"target":34963}],"buffers":[{"byteLength":203808,"uri":"data:application/octet-stream;base64,"}],"accessors":[{"bufferView":0,"componentType":5126,"count":216,"max":[0.15625,0.3299103379249573,0.140625],"min":[-0.59375,-6.938893903907228e-18,-0.140625],"type":"VEC3"},{"bufferView":1,"componentType":5126,"count":216,"max":[0.9417298436164856,0.9958158135414124,1],"min":[-0.9890062808990479,-1,-1],"type":"VEC3"},{"bufferView":2,"componentType":5126,"count":216,"max":[0.6515190601348877,0.625],"min":[0.0012263971148058772,0],"type":"VEC2"},{"bufferView":3,"componentType":5123,"count":288,"max":[215],"min":[0],"type":"SCALAR"},{"bufferView":4,"componentType":5126,"count":216,"max":[0.59375,0.3299103379249573,0.140625],"min":[-0.15625,-6.938893903907228e-18,-0.140625],"type":"VEC3"},{"bufferView":5,"componentType":5126,"count":216,"max":[0.9890062808990479,0.9958158135414124,1],"min":[-0.9417298436164856,-1,-1],"type":"VEC3"},{"bufferView":6,"componentType":5126,"count":216,"max":[0.7090868353843689,0.65625],"min":[0.004730963613837957,0],"type":"VEC2"},{"bufferView":7,"componentType":5123,"count":288,"max":[215],"min":[0],"type":"SCALAR"},{"bufferView":8,"componentType":5126,"count":216,"max":[0.25,0.5,0.2750000059604645],"min":[-0.25,0,-0.2750000059604645],"type":"VEC3"},{"bufferView":9,"componentType":5126,"count":216,"max":[1,1,0.9830316305160522],"min":[-1,-1,-0.9830316305160522],"type":"VEC3"},{"bufferView":10,"componentType":5126,"count":216,"max":[0.71875,0.71875],"min":[0,0],"type":"VEC2"},{"bufferView":11,"componentType":5123,"count":288,"max":[215],"min":[0],"type":"SCALAR"},{"bufferView":12,"componentType":5126,"count":216,"max":[0.25,0.5,0.2750000059604645],"min":[-0.25,0,-0.2750000059604645],"type":"VEC3"},{"bufferView":13,"componentType":5126,"count":216,"max":[1,1,0.9830316305160522],"min":[-1,-1,-0.9830316305160522],"type":"VEC3"},{"bufferView":14,"componentType":5126,"count":216,"max":[0.71875,0.71875],"min":[0,0],"type":"VEC2"},{"bufferView":15,"componentType":5123,"count":288,"max":[215],"min":[0],"type":"SCALAR"},{"bufferView":16,"componentType":5126,"count":168,"max":[0.5625,0.5625,0.4375],"min":[-0.5625,-0.125,-0.4375],"type":"VEC3"},{"bufferView":17,"componentType":5126,"count":168,"max":[1,1,1],"min":[-1,-1,-1],"type":"VEC3"},{"bufferView":18,"componentType":5126,"count":168,"max":[0.59375,0.609375],"min":[0,0],"type":"VEC2"},{"bufferView":19,"componentType":5123,"count":216,"max":[167],"min":[0],"type":"SCALAR"},{"bufferView":20,"componentType":5126,"count":288,"max":[0.5625,0.5625,0.4375],"min":[-0.5625,-0.375,-0.4375],"type":"VEC3"},{"bufferView":21,"componentType":5126,"count":288,"max":[1,1,1],"min":[-1,-1,-1],"type":"VEC3"},{"bufferView":22,"componentType":5126,"count":288,"max":[0.59375,0.609375],"min":[0,0],"type":"VEC2"},{"bufferView":23,"componentType":5123,"count":216,"max":[167],"min":[0],"type":"SCALAR"},{"bufferView":24,"componentType":5123,"count":144,"max":[287],"min":[168],"type":"SCALAR"},{"bufferView":25,"componentType":5126,"count":602,"max":[0.1205127015709877,0.015625,0.1205127015709877],"min":[-0.1205127015709877,-0.3734374940395355,-0.1205127015709877],"type":"VEC3"},{"bufferView":26,"componentType":5126,"count":602,"max":[0.9927088618278503,0.9749279022216797,1],"min":[-0.9927088618278503,-0.9974443316459656,-0.9709418416023254],"type":"VEC3"},{"bufferView":27,"componentType":5126,"count":602,"max":[0.5,0.606769323348999],"min":[0.0020192069932818413,0],"type":"VEC2"},{"bufferView":28,"componentType":5123,"count":828,"max":[601],"min":[0],"type":"SCALAR"},{"bufferView":29,"componentType":5126,"count":676,"max":[0.12439706176519394,0.046875,0.12029898166656494],"min":[-0.12439706176519394,-0.421875,-0.12576976418495178],"type":"VEC3"},{"bufferView":30,"componentType":5126,"count":676,"max":[0.9927088618278503,0.9749279022216797,1],"min":[-0.9927088618278503,-0.9749279022216797,-0.9711467027664185],"type":"VEC3"},{"bufferView":31,"componentType":5126,"count":676,"max":[0.5,0.5130218267440796],"min":[0,0],"type":"VEC2"},{"bufferView":32,"componentType":5123,"count":936,"max":[675],"min":[0],"type":"SCALAR"},{"bufferView":33,"componentType":5126,"count":602,"max":[0.1205127015709877,0.015625,0.1205127015709877],"min":[-0.1205127015709877,-0.3734374940395355,-0.1205127015709877],"type":"VEC3"},{"bufferView":34,"componentType":5126,"count":602,"max":[0.9927088618278503,0.9749279022216797,1],"min":[-0.9927088618278503,-0.9974443316459656,-0.9709418416023254],"type":"VEC3"},{"bufferView":35,"componentType":5126,"count":602,"max":[0.5,0.606769323348999],"min":[0.0020192069932818413,0],"type":"VEC2"},{"bufferView":36,"componentType":5123,"count":828,"max":[601],"min":[0],"type":"SCALAR"},{"bufferView":37,"componentType":5126,"count":676,"max":[0.12439706176519394,0.046875,0.12029898166656494],"min":[-0.12439706176519394,-0.421875,-0.12576976418495178],"type":"VEC3"},{"bufferView":38,"componentType":5126,"count":676,"max":[0.9927088618278503,0.9749279022216797,1],"min":[-0.9927088618278503,-0.9749279022216797,-0.9711467027664185],"type":"VEC3"},{"bufferView":39,"componentType":5126,"count":676,"max":[0.5,0.5130218267440796],"min":[0,0],"type":"VEC2"},{"bufferView":40,"componentType":5123,"count":936,"max":[675],"min":[0],"type":"SCALAR"},{"bufferView":41,"componentType":5126,"count":606,"max":[0.25,0.14531250298023224,0.25],"min":[-0.25,-0.4375,-0.25],"type":"VEC3"},{"bufferView":42,"componentType":5126,"count":606,"max":[1,0.9749279022216797,1],"min":[-1,-1,-1],"type":"VEC3"},{"bufferView":43,"componentType":5126,"count":606,"max":[0.8036062717437744,0.9478160738945007],"min":[0,0],"type":"VEC2"},{"bufferView":44,"componentType":5123,"count":834,"max":[605],"min":[0],"type":"SCALAR"},{"bufferView":45,"componentType":5126,"count":390,"max":[0.06245993450284004,0.04843749850988388,0.06149273365736008],"min":[-0.06245993450284004,-0.3265624940395355,-0.1873043030500412],"type":"VEC3"},{"bufferView":46,"componentType":5126,"count":390,"max":[0.9933575987815857,0.9749279022216797,1],"min":[-0.9927617311477661,-0.9999468922615051,-0.9709418416023254],"type":"VEC3"},{"bufferView":47,"componentType":5126,"count":390,"max":[0.8125,0.8822500109672546],"min":[0,0],"type":"VEC2"},{"bufferView":48,"componentType":5123,"count":546,"max":[389],"min":[0],"type":"SCALAR"},{"bufferView":49,"componentType":5126,"count":606,"max":[0.25,0.14531250298023224,0.25],"min":[-0.25,-0.4375,-0.25],"type":"VEC3"},{"bufferView":50,"componentType":5126,"count":606,"max":[1,0.9749279022216797,1],"min":[-1,-1,-1],"type":"VEC3"},{"bufferView":51,"componentType":5126,"count":606,"max":[0.8036062717437744,0.9478160738945007],"min":[0,0],"type":"VEC2"},{"bufferView":52,"componentType":5123,"count":834,"max":[605],"min":[0],"type":"SCALAR"},{"bufferView":53,"componentType":5126,"count":390,"max":[0.06245993450284004,0.04843749850988388,0.06149273365736008],"min":[-0.06245993450284004,-0.3265624940395355,-0.1873043030500412],"type":"VEC3"},{"bufferView":54,"componentType":5126,"count":390,"max":[0.9927617311477661,0.9749279022216797,1],"min":[-0.9933575987815857,-0.9999468922615051,-0.9709418416023254],"type":"VEC3"},{"bufferView":55,"componentType":5126,"count":390,"max":[0.8125,0.8822500109672546],"min":[0,0],"type":"VEC2"},{"bufferView":56,"componentType":5123,"count":546,"max":[389],"min":[0],"type":"SCALAR"}],"materials":[{"pbrMetallicRoughness":{"metallicFactor":0,"roughnessFactor":1,"baseColorTexture":{"index":0}},"alphaMode":"MASK","alphaCutoff":0.05,"doubleSided":true},{"pbrMetallicRoughness":{"metallicFactor":0,"roughnessFactor":1,"baseColorTexture":{"index":1}},"alphaMode":"MASK","alphaCutoff":0.05,"doubleSided":true},{"pbrMetallicRoughness":{"metallicFactor":0,"roughnessFactor":1,"baseColorTexture":{"index":2}},"alphaMode":"MASK","alphaCutoff":0.05,"doubleSided":true},{"pbrMetallicRoughness":{"metallicFactor":0,"roughnessFactor":1,"baseColorTexture":{"index":3}},"alphaMode":"MASK","alphaCutoff":0.05,"doubleSided":true},{"pbrMetallicRoughness":{"metallicFactor":0,"roughnessFactor":1,"baseColorTexture":{"index":4}},"alphaMode":"MASK","alphaCutoff":0.05,"doubleSided":true},{"pbrMetallicRoughness":{"metallicFactor":0,"roughnessFactor":1,"baseColorTexture":{"index":5}},"alphaMode":"MASK","alphaCutoff":0.05,"doubleSided":true},{"pbrMetallicRoughness":{"metallicFactor":0,"roughnessFactor":1,"baseColorTexture":{"index":6}},"alphaMode":"MASK","alphaCutoff":0.05,"doubleSided":true},{"pbrMetallicRoughness":{"metallicFactor":0,"roughnessFactor":1,"baseColorTexture":{"index":7}},"alphaMode":"MASK","alphaCutoff":0.05,"doubleSided":true},{"pbrMetallicRoughness":{"metallicFactor":0,"roughnessFactor":1,"baseColorTexture":{"index":8}},"alphaMode":"MASK","alphaCutoff":0.05,"doubleSided":true},{"pbrMetallicRoughness":{"metallicFactor":0,"roughnessFactor":1,"baseColorTexture":{"index":9}},"alphaMode":"MASK","alphaCutoff":0.05,"doubleSided":true},{"pbrMetallicRoughness":{"metallicFactor":0,"roughnessFactor":1,"baseColorTexture":{"index":10}},"alphaMode":"MASK","alphaCutoff":0.05,"doubleSided":true}],"textures":[{"sampler":0,"source":0,"name":"right horn.png"},{"sampler":1,"source":1,"name":"left horn.png"},{"sampler":2,"source":2,"name":"right ear.png"},{"sampler":3,"source":3,"name":"left ear.png"},{"sampler":4,"source":4,"name":"head.png"},{"sampler":5,"source":5,"name":"shirt.png"},{"sampler":6,"source":6,"name":"lower body.png"},{"sampler":7,"source":7,"name":"upper arm.png"},{"sampler":8,"source":8,"name":"forearm.png"},{"sampler":9,"source":9,"name":"upper leg.png"},{"sampler":10,"source":10,"name":"lower leg.png"}],"samplers":[{"magFilter":9728,"minFilter":9728,"wrapS":33071,"wrapT":33071},{"magFilter":9728,"minFilter":9728,"wrapS":33071,"wrapT":33071},{"magFilter":9728,"minFilter":9728,"wrapS":33071,"wrapT":33071},{"magFilter":9728,"minFilter":9728,"wrapS":33071,"wrapT":33071},{"magFilter":9728,"minFilter":9728,"wrapS":33071,"wrapT":33071},{"magFilter":9728,"minFilter":9728,"wrapS":33071,"wrapT":33071},{"magFilter":9728,"minFilter":9728,"wrapS":33071,"wrapT":33071},{"magFilter":9728,"minFilter":9728,"wrapS":33071,"wrapT":33071},{"magFilter":9728,"minFilter":9728,"wrapS":33071,"wrapT":33071},{"magFilter":9728,"minFilter":9728,"wrapS":33071,"wrapT":33071},{"magFilter":9728,"minFilter":9728,"wrapS":33071,"wrapT":33071}],"images":[{"mimeType":"image/png","uri":"data:image/png;base64,"},{"mimeType":"image/png","uri":"data:image/png;base64,"},{"mimeType":"image/png","uri":"data:image/png;base64,"},{"mimeType":"image/png","uri":"data:image/png;base64,"},{"mimeType":"image/png","uri":"data:image/png;base64,"},{"mimeType":"image/png","uri":"data:image/png;base64,"},{"mimeType":"image/png","uri":"data:image/png;base64,"},{"mimeType":"image/png","uri":"data:image/png;base64,"},{"mimeType":"image/png","uri":"data:image/png;base64,"},{"mimeType":"image/png","uri":"data:image/png;base64,"},{"mimeType":"image/png","uri":"data:image/png;base64,"}],"meshes":[{"primitives":[{"mode":4,"attributes":{"POSITION":0,"NORMAL":1,"TEXCOORD_0":2},"indices":3,"material":0}]},{"primitives":[{"mode":4,"attributes":{"POSITION":4,"NORMAL":5,"TEXCOORD_0":6},"indices":7,"material":1}]},{"primitives":[{"mode":4,"attributes":{"POSITION":8,"NORMAL":9,"TEXCOORD_0":10},"indices":11,"material":2}]},{"primitives":[{"mode":4,"attributes":{"POSITION":12,"NORMAL":13,"TEXCOORD_0":14},"indices":15,"material":3}]},{"primitives":[{"mode":4,"attributes":{"POSITION":16,"NORMAL":17,"TEXCOORD_0":18},"indices":19,"material":4}]},{"primitives":[{"mode":4,"attributes":{"POSITION":20,"NORMAL":21,"TEXCOORD_0":22},"indices":23,"material":5},{"mode":4,"attributes":{"POSITION":20,"NORMAL":21,"TEXCOORD_0":22},"indices":24,"material":6}]},{"primitives":[{"mode":4,"attributes":{"POSITION":25,"NORMAL":26,"TEXCOORD_0":27},"indices":28,"material":7}]},{"primitives":[{"mode":4,"attributes":{"POSITION":29,"NORMAL":30,"TEXCOORD_0":31},"indices":32,"material":8}]},{"primitives":[{"mode":4,"attributes":{"POSITION":33,"NORMAL":34,"TEXCOORD_0":35},"indices":36,"material":7}]},{"primitives":[{"mode":4,"attributes":{"POSITION":37,"NORMAL":38,"TEXCOORD_0":39},"indices":40,"material":8}]},{"primitives":[{"mode":4,"attributes":{"POSITION":41,"NORMAL":42,"TEXCOORD_0":43},"indices":44,"material":9}]},{"primitives":[{"mode":4,"attributes":{"POSITION":45,"NORMAL":46,"TEXCOORD_0":47},"indices":48,"material":10}]},{"primitives":[{"mode":4,"attributes":{"POSITION":49,"NORMAL":50,"TEXCOORD_0":51},"indices":52,"material":9}]},{"primitives":[{"mode":4,"attributes":{"POSITION":53,"NORMAL":54,"TEXCOORD_0":55},"indices":56,"material":10}]}]}